<svg width="24" height="24" viewBox="0 0 24 24" fill="none" xmlns="http://www.w3.org/2000/svg">
<path d="M17.7369 1.66008H12.4469V6.63886H21.0042L19.2409 2.64546C18.9816 2.07498 18.4111 1.66008 17.7369 1.66008ZM21.5747 8.29845H12.4469H10.7873H1.65957V19.9156C1.65957 20.8491 2.38564 21.5752 3.31916 21.5752H19.9151C20.7967 21.5752 21.5747 20.8491 21.5747 19.9156V8.29845ZM2.17819 6.63886H10.7873V1.66008H5.44552C4.82317 1.66008 4.20082 2.07498 3.94151 2.64546L2.17819 6.63886ZM17.7369 0.000488043C19.0334 0.000488043 20.2263 0.778422 20.7449 1.97125L22.9231 6.84631C23.1306 7.26121 23.2343 7.72797 23.2343 8.19473V19.9156C23.2343 21.7826 21.7303 23.2348 19.9151 23.2348H3.31916C1.45212 23.2348 -2.38419e-05 21.7826 -2.38419e-05 19.9156V8.19473C-2.38419e-05 7.72797 0.0518384 7.26121 0.259288 6.84631L2.4375 1.97125C2.95613 0.778422 4.14896 0.000488043 5.44552 0.000488043H17.7369Z" fill="#7B90F6"/>
</svg>
