<svg width="9" height="9" viewBox="0 0 9 9" fill="none" xmlns="http://www.w3.org/2000/svg">
<path d="M4.45471 8.51059C2.92548 8.51059 1.52923 7.71273 0.764613 6.38297C-1.90735e-06 5.06982 -1.90735e-06 3.45748 0.764613 2.12772C1.52923 0.814573 2.92548 9.15527e-05 4.45471 9.15527e-05C5.96732 9.15527e-05 7.36357 0.814573 8.12819 2.12772C8.8928 3.45748 8.8928 5.06982 8.12819 6.38297C7.36357 7.71273 5.96732 8.51059 4.45471 8.51059ZM6.33301 3.4741H6.31638C6.4826 3.3245 6.4826 3.07517 6.31638 2.90895C6.16678 2.75935 5.91745 2.75935 5.76786 2.90895L3.92281 4.77062L3.14157 3.98939C2.97535 3.82317 2.72602 3.82317 2.57642 3.98939C2.4102 4.13899 2.4102 4.38832 2.57642 4.53792L3.64023 5.60173C3.78983 5.76795 4.03916 5.76795 4.20538 5.60173L6.33301 3.4741Z" fill="#7B90F6"/>
</svg>
