<svg width="24" height="24" viewBox="0 0 24 24" fill="none" xmlns="http://www.w3.org/2000/svg">
<path d="M11.875 4C12.2812 4 12.625 4.34375 12.625 4.75V5.0625C15.4062 5.40625 17.5938 7.6875 17.8438 10.5H18.125C18.5312 10.5 18.875 10.8438 18.875 11.25C18.875 11.6875 18.5312 12 18.125 12H5.625C5.1875 12 4.875 11.6875 4.875 11.25C4.875 10.8438 5.1875 10.5 5.625 10.5H5.875C6.125 7.6875 8.3125 5.40625 11.125 5.0625V4.75C11.125 4.34375 11.4375 4 11.875 4ZM7.375 10.5H16.3438C16.0938 8.25 14.1875 6.5 11.875 6.5C9.53125 6.5 7.625 8.25 7.375 10.5ZM7.375 13V16H9.375V13H10.875V16H12.875V13H14.375V16H16.375V13H17.875V16H18.125C18.5312 16 18.875 16.3438 18.875 16.75C18.875 17.1875 18.5312 17.5 18.125 17.5H5.875C5.4375 17.5 5.125 17.1875 5.125 16.75C5.125 16.3438 5.4375 16 5.875 16V13H7.375ZM4.125 19.25C4.125 18.8438 4.4375 18.5 4.875 18.5H19.125C19.5312 18.5 19.875 18.8438 19.875 19.25C19.875 19.6875 19.5312 20 19.125 20H4.875C4.4375 20 4.125 19.6875 4.125 19.25Z" fill="#7B90F6"/>
</svg>
