<svg width="62" height="62" viewBox="0 0 62 62" fill="none" xmlns="http://www.w3.org/2000/svg">
<rect width="61.8508" height="61.8508" rx="8" fill="#F9FAFB"/>
<path d="M37.1002 31.9333L42.9088 34.4227C43.8423 34.7857 44.3609 35.7711 44.1535 36.7565L42.9088 42.565C42.7013 43.4986 41.8715 44.2246 40.8862 44.2246C40.5231 44.2246 40.2119 44.1728 39.9008 44.1728C39.6933 44.1728 39.434 44.1728 39.2266 44.1209C27.1427 43.2911 17.6519 33.2298 17.6519 20.9385C17.6519 20.0049 18.3261 19.1233 19.2596 18.9158L25.0682 17.6711C26.0535 17.4637 27.0389 17.9823 27.402 18.9158L29.8914 24.7244C30.2544 25.5542 30.0469 26.5396 29.3209 27.1101L27.1945 28.8734C28.5948 31.2591 30.5656 33.2298 32.9512 34.6301L34.7145 32.5037C35.285 31.7777 36.2704 31.5702 37.1002 31.9333ZM40.8343 42.5132C41.0417 42.5132 41.1973 42.4094 41.2492 42.202L42.4939 36.3934C42.5457 36.186 42.442 36.0304 42.2864 35.9267L36.4779 33.4373C36.2704 33.3854 36.1148 33.4373 35.9592 33.541L34.2478 35.6673C33.7292 36.2897 32.8475 36.4453 32.1214 36.0304C29.4765 34.5264 27.2982 32.3482 25.7942 29.7032C25.3793 28.9771 25.5349 28.0955 26.1573 27.5768L28.2836 25.8654C28.3873 25.7098 28.4392 25.5542 28.3873 25.3468L25.898 19.5382C25.7942 19.3826 25.6386 19.2789 25.4312 19.3307L19.6226 20.5754C19.4152 20.5754 19.3114 20.7829 19.3114 20.9385C19.3114 32.8668 28.9578 42.5132 40.8343 42.5132Z" fill="#7B90F6"/>
</svg>
