<svg width="25" height="27" viewBox="0 0 25 27" fill="none" xmlns="http://www.w3.org/2000/svg">
<path d="M13.1212 1.91908C12.7063 1.71163 12.2395 1.71163 11.8246 1.91908L2.64498 5.80875C2.07449 6.0162 1.65959 6.58669 1.71146 7.20904C1.71146 12.0841 3.73408 20.6932 11.8246 24.5829C12.2395 24.7903 12.7063 24.7903 13.1212 24.5829C21.2117 20.6932 23.2343 12.0841 23.2862 7.20904C23.2862 6.58669 22.8713 6.0162 22.3008 5.80875L13.1212 1.91908ZM11.2023 0.363215C12.032 0.000179328 12.9656 0.000179328 13.7954 0.363215L22.9231 4.25289C24.0641 4.77151 24.9458 5.86062 24.9458 7.20904C24.8939 12.3953 22.7675 21.7823 13.8472 26.0869C12.9656 26.5018 11.9802 26.5018 11.0985 26.0869C2.17822 21.7823 0.0518633 12.3953 0.0518633 7.20904C1.03563e-06 5.86062 0.88166 4.77151 2.02263 4.25289L11.2023 0.363215Z" fill="#7B90F6"/>
</svg>
