<svg width="28" height="27" viewBox="0 0 28 27" fill="none" xmlns="http://www.w3.org/2000/svg">
<path d="M10.5799 8.7648C10.3206 9.28342 9.85385 9.5946 9.33522 9.69832L2.23009 10.7356L7.36446 15.8699C7.77936 16.233 7.93494 16.8035 7.83122 17.3221L6.63839 24.5828L12.9656 21.1599C13.4842 20.9006 14.0547 20.9006 14.5733 21.1599L20.9005 24.5828L19.7077 17.3221C19.604 16.8035 19.7595 16.233 20.1744 15.8699L25.3088 10.7356L18.2037 9.69832C17.6332 9.5946 17.1664 9.28342 16.959 8.7648L13.7435 2.23015L10.5799 8.7648ZM20.8486 26.4498H20.9005L13.7954 22.612L6.69025 26.4498C6.27535 26.6573 5.75673 26.6054 5.34183 26.3461C4.97879 26.0349 4.77134 25.5682 4.87507 25.1014L6.22349 17.0628L0.466775 11.3579C0.103739 10.9949 1.4171e-05 10.5281 0.155601 10.0614C0.311188 9.64646 0.674224 9.28342 1.14098 9.23156L9.07591 8.03873L12.6544 0.726147C12.8619 0.311249 13.2768 7.48634e-05 13.7435 7.48634e-05C14.2621 7.48634e-05 14.677 0.311249 14.8845 0.726147L18.463 8.03873L26.3979 9.23156C26.8647 9.28342 27.2277 9.64646 27.3833 10.0614C27.5389 10.5281 27.4352 10.9949 27.0721 11.3579L21.3154 17.0628L22.6638 25.1014C22.7676 25.5682 22.5601 26.0349 22.1971 26.3461C21.7822 26.6054 21.3154 26.6573 20.8486 26.4498Z" fill="#7B90F6"/>
</svg>
