<svg width="30" height="27" viewBox="0 0 30 27" fill="none" xmlns="http://www.w3.org/2000/svg">
<path d="M19.9151 1.65967H18.2555V4.56396C18.2555 5.75679 17.322 6.63845 16.181 6.63845H13.6916C12.4988 6.63845 11.6172 5.75679 11.6172 4.56396V1.65967H9.95756C9.02404 1.65967 8.29797 2.4376 8.29797 3.31926V9.95763H6.63838V3.31926C6.63838 1.50408 8.09052 7.48634e-05 9.95756 7.48634e-05H13.2767H16.5959H19.9151C21.7303 7.48634e-05 23.2343 1.50408 23.2343 3.31926V9.95763H21.5747V3.31926C21.5747 2.4376 20.7968 1.65967 19.9151 1.65967ZM13.2767 1.65967V4.56396C13.2767 4.82327 13.4323 4.97885 13.6916 4.97885H16.181C16.3885 4.97885 16.5959 4.82327 16.5959 4.56396V1.65967H13.2767ZM16.959 26.5536C17.3739 26.0868 17.7369 25.5163 17.9444 24.894H26.5535C27.4351 24.894 28.2131 24.1679 28.2131 23.2344V14.9364C28.2131 14.0548 27.4351 13.2768 26.5535 13.2768H24.8939V16.1811C24.8939 17.3739 23.9604 18.2556 22.8194 18.2556H20.33C19.189 18.2556 18.2555 17.3739 18.2555 16.1811V14.9364V13.2768H17.9444C17.7369 12.7063 17.3739 12.1358 16.959 11.6172H19.9151H23.2343H26.5535C28.3687 11.6172 29.8727 13.1212 29.8727 14.9364V23.2344C29.8727 25.1014 28.3687 26.5536 26.5535 26.5536H16.959ZM19.9151 13.2768V16.1811C19.9151 16.4404 20.0707 16.596 20.33 16.596H22.8194C23.0269 16.596 23.2343 16.4404 23.2343 16.1811V13.2768H19.9151ZM13.2767 13.2768H11.6172V16.1811C11.6172 17.3739 10.6836 18.2556 9.54266 18.2556H7.05327C5.86044 18.2556 4.97878 17.3739 4.97878 16.1811V13.2768H3.31919C2.38567 13.2768 1.6596 14.0548 1.6596 14.9364V23.2344C1.6596 24.1679 2.38567 24.894 3.31919 24.894H13.2767C14.1584 24.894 14.9363 24.1679 14.9363 23.2344V14.9364C14.9363 14.0548 14.1584 13.2768 13.2767 13.2768ZM6.63838 16.1811C6.63838 16.4404 6.79396 16.596 7.05327 16.596H9.54266C9.75011 16.596 9.95756 16.4404 9.95756 16.1811V13.2768H6.63838V16.1811ZM13.2767 11.6172C15.0919 11.6172 16.5959 13.1212 16.5959 14.9364V23.2344C16.5959 25.1014 15.0919 26.5536 13.2767 26.5536H3.31919C1.45215 26.5536 4.76837e-06 25.1014 4.76837e-06 23.2344V14.9364C4.76837e-06 13.1212 1.45215 11.6172 3.31919 11.6172H4.97878H6.63838H9.95756H11.6172H13.2767Z" fill="#7B90F6"/>
</svg>
