<svg width="34" height="27" viewBox="0 0 34 27" fill="none" xmlns="http://www.w3.org/2000/svg">
<path d="M3.31919 1.65967C2.38567 1.65967 1.6596 2.4376 1.6596 3.31926V18.2556C1.6596 19.1891 2.38567 19.9152 3.31919 19.9152H3.5785C4.25271 17.9963 6.11975 16.596 8.29797 16.596C10.4243 16.596 12.2914 17.9963 12.9656 19.9152H19.9151V3.31926C19.9151 2.4376 19.1372 1.65967 18.2555 1.65967H3.31919ZM3.31919 21.5748C1.45215 21.5748 3.8147e-06 20.1226 3.8147e-06 18.2556V3.31926C3.8147e-06 1.50408 1.45215 7.48634e-05 3.31919 7.48634e-05H18.2555C20.0707 7.48634e-05 21.5747 1.50408 21.5747 3.31926V4.97885H24.9458C25.6718 4.97885 26.346 5.34189 26.8128 5.86051L30.9099 10.6318C31.273 11.0986 31.5323 11.6691 31.5323 12.2396V19.9152H32.3621C32.777 19.9152 33.1919 20.3301 33.1919 20.745C33.1919 21.2117 32.777 21.5748 32.3621 21.5748H29.8727C29.8727 24.3235 27.6426 26.5536 24.8939 26.5536C22.1452 26.5536 19.9151 24.3235 19.9151 21.5748H13.2767C13.2767 24.3235 11.0467 26.5536 8.29797 26.5536C5.54927 26.5536 3.31919 24.3235 3.31919 21.5748ZM21.5747 11.6172H29.5615L25.5681 6.94962C25.4125 6.79403 25.1532 6.63845 24.9458 6.63845H21.5747V11.6172ZM21.5747 13.2768V17.8926C22.4564 17.1146 23.5973 16.596 24.8939 16.596C27.0203 16.596 28.8873 17.9963 29.5615 19.9152H29.8727V13.2768H21.5747ZM11.6172 21.5748C11.6172 20.4338 10.9429 19.3447 9.95756 18.7224C8.92032 18.1519 7.62376 18.1519 6.63838 18.7224C5.60113 19.3447 4.97878 20.4338 4.97878 21.5748C4.97878 22.7676 5.60113 23.8567 6.63838 24.4791C7.62376 25.0496 8.92032 25.0496 9.95756 24.4791C10.9429 23.8567 11.6172 22.7676 11.6172 21.5748ZM24.8939 24.894C26.0349 24.894 27.124 24.2716 27.7463 23.2344C28.3168 22.249 28.3168 20.9524 27.7463 19.9152C27.124 18.9298 26.0349 18.2556 24.8939 18.2556C23.7011 18.2556 22.612 18.9298 21.9896 19.9152C21.4191 20.9524 21.4191 22.249 21.9896 23.2344C22.612 24.2716 23.7011 24.894 24.8939 24.894Z" fill="#7B90F6"/>
</svg>
